<mxfile host="app.diagrams.net" modified="2024-03-28T02:15:38.515Z" agent="Mozilla/5.0 (Windows NT 10.0; Win64; x64) AppleWebKit/537.36 (KHTML, like Gecko) Chrome/123.0.0.0 Safari/537.36" version="24.2.0" etag="A1SvbEDKziZ_eXeb_WQD" type="github">
  <diagram name="第 1 页" id="ej-ZPu1dW7DcqHQKRZ6C">
    <mxGraphModel>
      <root>
        <mxCell id="0" />
        <mxCell id="1" parent="0" />
      </root>
    </mxGraphModel>
  </diagram>
</mxfile>
